<svg width="13" height="12" viewBox="0 0 13 12" fill="none" xmlns="http://www.w3.org/2000/svg">
<path d="M4.54277 3.97913L4.28551 4.0153L0.735422 4.51446L0.73507 4.51451C0.488135 4.54905 0.4416 4.8063 0.577982 4.93437L0.578127 4.93451L3.14653 7.34827L3.34386 7.53372L3.29637 7.80032L2.68896 11.2097C2.68894 11.2098 2.68893 11.2098 2.68892 11.2099C2.6724 11.3034 2.70895 11.3872 2.79333 11.4459C2.88013 11.5062 2.99278 11.52 3.09649 11.4669L3.09804 11.4661L6.27392 9.85618L6.5 9.74157L6.72608 9.85618L9.90196 11.4661L9.90204 11.4662C10.0064 11.5191 10.12 11.5051 10.207 11.4447C10.2913 11.3863 10.3276 11.303 10.311 11.2097L9.70363 7.80032L9.65614 7.53372L9.85347 7.34827L12.4219 4.93451L12.422 4.93437C12.5584 4.8063 12.5119 4.54905 12.2649 4.51451L12.2646 4.51446L8.71449 4.0153L8.45723 3.97913L8.33894 3.74783L6.7527 0.646024C6.75263 0.645893 6.75256 0.645763 6.75249 0.645632C6.70595 0.555457 6.61326 0.500363 6.49933 0.500002C6.38662 0.499644 6.29509 0.552846 6.24778 0.645089L4.54277 3.97913ZM4.54277 3.97913L4.66106 3.74783L6.24769 0.645279L4.54277 3.97913Z" fill="#FFE500" stroke="black"/>
</svg>
